<svg width="65" height="64" viewBox="0 0 65 64" fill="none" xmlns="http://www.w3.org/2000/svg">
<g clip-path="url(#clip0_13_82)">
<path fill-rule="evenodd" clip-rule="evenodd" d="M37.9667 24.2948C38.6778 23.2953 39.0334 22.2127 39.2114 21.0463C42.0559 18.7141 45.8784 17.7146 49.6121 18.0477C50.59 23.2952 56.6346 23.2121 60.9908 22.6289C61.7907 22.5457 62.2355 21.8794 61.9687 21.2131C61.1688 19.3804 60.1021 17.6314 58.8573 16.0488C61.2576 14.6329 63.0353 9.88485 63.2133 9.30167C63.4802 8.7185 62.9465 7.96901 62.2354 7.96901C61.613 7.88584 56.2795 7.469 53.9681 8.88534C51.6567 10.3012 50.5012 12.6339 51.2123 14.5492C50.59 14.9656 50.2344 15.2987 49.9676 15.965C48.101 15.715 46.1451 15.8819 44.2786 16.2982C44.5454 15.1319 44.8122 13.5497 44.9897 12.0501C51.0344 13.2165 52.1011 5.63627 51.7455 1.72144C51.6567 1.0551 50.9456 0.555102 50.2345 0.805105C47.9231 1.47145 45.7009 2.55414 43.8342 3.88681C42.1452 2.38734 40.1893 1.05468 38.1452 0.13827C37.5229 -0.194895 36.723 0.138271 36.545 0.804614C35.567 4.4695 35.9226 14.4651 42.7676 11.7165C42.5896 13.5492 42.234 15.2982 41.7897 17.0471C40.1894 17.7135 38.6783 18.5466 37.4336 19.7125C33.4331 22.2115 31.4777 22.1278 27.4772 19.7125C26.2325 18.6298 24.7214 17.7135 23.1212 17.0471C22.6768 15.2981 22.3213 13.5485 22.1432 11.7165C28.7215 14.3818 29.4326 5.05305 28.3659 0.804614C28.1878 0.138271 27.388 -0.194895 26.7656 0.13827C24.6322 1.0546 22.7651 2.38734 21.0766 3.88681C19.1207 2.55414 16.9873 1.47144 14.5871 0.805105C13.8759 0.555102 13.1648 1.05511 13.1648 1.72144C12.8092 5.63627 13.876 13.2996 19.8318 12.0501C20.0986 13.5496 20.2762 15.1318 20.543 16.2982C18.7651 15.8819 16.8981 15.715 15.0314 15.8819C14.7646 15.2987 14.3203 14.9655 13.7867 14.5492C14.4978 12.6334 13.3424 10.3011 11.0309 8.88532C8.71954 7.46951 3.38603 7.88581 2.76364 7.96898C2.0525 7.96898 1.51889 8.71849 1.7857 9.30165C2.5856 11.4674 4.0971 14.7161 6.14174 16.0487C4.89699 17.6313 3.83034 19.3804 3.03034 21.2131C2.76353 21.8794 3.20838 22.5457 3.91952 22.6289C8.36443 23.2121 14.4978 23.2952 15.387 18.0477C19.0319 17.7146 22.8544 18.7141 25.6096 21.0463C25.7877 22.2126 26.232 23.2953 26.8544 24.2116C19.2094 22.1295 11.9206 24.7948 5.96427 29.4591C5.51994 29.7923 5.16438 30.3755 5.16438 30.9586C2.85298 30.9586 0.630732 31.4586 0.541992 34.1239V60.7784C0.630753 62.5275 2.14226 63.9438 4.00888 63.9438H30.7665C31.3889 63.9438 31.922 63.777 32.4555 63.5274C32.9892 63.7774 33.611 63.9438 34.2334 63.9438H60.9911C62.8577 63.9438 64.3692 62.528 64.3692 60.7784V34.1239C64.3692 31.4586 62.0578 30.9586 59.8356 30.9586C59.8356 30.9586 51.5683 21.3799 37.968 24.2952L37.9667 24.2948ZM53.7905 20.2132C52.5458 19.4637 50.768 17.2146 52.5458 16.2983C56.0127 18.5474 56.3683 14.4656 59.2128 20.7132C57.2569 20.7964 54.8568 20.7964 53.79 20.2132L53.7905 20.2132ZM55.124 10.6345C57.0799 9.88495 58.5022 9.88495 60.5468 9.96812C59.7469 11.634 58.5909 13.633 57.6136 14.2162C54.058 16.5484 51.3022 12.9667 55.1246 10.6344L55.124 10.6345ZM49.5238 3.30419C49.5238 5.22003 48.3683 12.1334 44.9014 9.71805C45.435 8.55171 45.3457 7.05273 44.9901 5.88636C45.8793 4.80368 48.1903 3.80422 49.5238 3.30419H49.5238ZM38.4118 2.72102C40.7232 3.97053 43.4791 5.55315 42.9455 8.46855C42.5012 11.3007 37.0783 10.3012 38.4118 2.72102ZM26.4108 2.72102C28.1886 12.633 19.7437 10.8008 22.3215 5.96953C22.8551 4.97002 24.8105 3.63731 26.4108 2.72102ZM15.2988 3.30419C17.3435 4.0537 18.3213 4.47053 19.9212 5.88636C19.4769 7.0527 19.4769 8.55169 20.01 9.71805C16.5431 12.1334 15.2983 5.22003 15.2983 3.30419H15.2988ZM4.45378 9.96762C6.40968 9.88445 8.80981 10.0508 9.78729 10.634C13.6098 12.9662 11.1208 16.5478 7.38702 14.2157C6.32032 13.6325 5.25364 11.6335 4.45378 9.96764V9.96762ZM11.1208 20.2132C10.1429 20.7963 7.74265 20.7963 5.78729 20.7132C6.40966 19.2974 7.29828 18.0478 8.36504 16.8815C9.78729 17.2147 11.2095 17.0483 12.3656 16.2983C14.1435 17.2147 12.5436 19.63 11.1208 20.2132L11.1208 20.2132ZM32.4559 41.3697C26.4113 37.4549 26.5 33.4568 32.4559 29.5419C38.4118 33.4568 38.4118 37.4549 32.4559 41.3697ZM28.6334 22.7114C31.2112 24.0441 33.6113 24.0441 36.2783 22.7114C35.3004 24.3773 34.1449 25.6268 32.4558 26.6263C30.4999 25.4599 29.7888 24.5441 28.6333 22.7114H28.6334ZM30.5 42.7026C28.7222 44.1184 25.6109 47.0338 25.6109 50.116C25.6109 51.5318 27.9223 51.5318 27.9223 50.116C27.9223 47.867 30.7668 45.2848 32.4559 43.9521C34.1449 45.2848 36.9896 47.867 36.9896 50.116C36.9896 51.5318 39.301 51.5318 39.301 50.116C39.301 47.0343 36.1896 44.1189 34.3231 42.7026C40.8126 38.0383 40.8126 32.8738 34.3231 28.2094C40.8126 22.795 51.747 26.5435 57.5244 31.1248V57.5298C49.7907 52.0322 40.9006 51.9491 32.4555 57.363C24.0106 51.9486 15.1204 52.0323 7.38662 57.5298V31.0416C13.2538 26.5436 24.0992 22.7956 30.588 28.2095C24.0097 32.9576 23.8322 37.8719 30.4992 42.7027L30.5 42.7026ZM53.4352 57.5297H36.5451C41.7898 54.7812 48.1905 54.7812 53.4352 57.5297ZM28.455 57.5297H11.5649C16.8097 54.7812 23.2104 54.7812 28.455 57.5297ZM62.1464 60.7782C62.1464 61.3614 61.6128 61.8609 60.991 61.8609H34.2333C33.5222 61.8609 33.4334 61.3609 32.8998 61.1114C32.5442 61.0282 32.1887 61.0282 31.8331 61.2782C31.4775 61.5282 31.2995 61.8614 30.7664 61.8614H4.00874C3.38636 61.8614 2.85327 61.3614 2.85327 60.7787V34.1242C2.85327 32.8747 4.27552 33.0415 5.16466 33.0415V57.5303C5.16466 58.7799 6.1426 59.6961 7.38678 59.6961H57.5233C58.8568 59.6961 59.8347 58.7798 59.8347 57.5303V33.0415C60.7238 33.0415 62.146 32.8747 62.146 34.1242V60.7787L62.1464 60.7782Z" fill="#C89354"/>
<path fill-rule="evenodd" clip-rule="evenodd" d="M29.5217 32.708C29.3437 32.8748 29.3437 33.208 29.5217 33.3744L34.7665 38.2888C34.9445 38.4556 35.2108 38.4556 35.3889 38.2888C35.5669 38.1219 35.5669 37.7888 35.3889 37.6224L30.2328 32.708C30.0548 32.5412 29.6992 32.5412 29.5217 32.708H29.5217Z" fill="#C89354"/>
<path fill-rule="evenodd" clip-rule="evenodd" d="M34.4102 34.2073L31.7432 31.7083C31.5652 31.5414 31.2989 31.5414 31.1208 31.7083C30.9428 31.8751 30.9428 32.2083 31.1208 32.2914L33.6986 34.7904C33.9654 35.0404 34.2322 35.0404 34.4097 34.8736C34.5878 34.6236 34.5878 34.3736 34.4097 34.2073L34.4102 34.2073Z" fill="#C89354"/>
<path fill-rule="evenodd" clip-rule="evenodd" d="M33.7892 38.5385L31.1221 36.0395C30.9441 35.8727 30.6778 35.8727 30.4997 36.1227C30.3217 36.2058 30.3217 36.539 30.4997 36.7058L33.0775 39.2049C33.3443 39.3717 33.6111 39.3717 33.7886 39.2049C33.9667 39.038 33.9667 38.7049 33.7886 38.5385L33.7892 38.5385Z" fill="#C89354"/>
</g>
<defs>
<clipPath id="clip0_13_82">
<rect width="64" height="64" fill="white" transform="translate(0.5)"/>
</clipPath>
</defs>
</svg>
