<svg width="62" height="64" viewBox="0 0 62 64" fill="none" xmlns="http://www.w3.org/2000/svg">
<g clip-path="url(#clip0_13_68)">
<path fill-rule="evenodd" clip-rule="evenodd" d="M19.3507 31.309H21.5697C22.082 26.9567 25.5806 23.4576 29.9329 23.031C29.9329 22.3483 29.5063 21.9217 28.9088 21.9217H22.5937C21.2283 21.9217 20.0333 20.9829 19.6068 19.7028C14.657 19.2762 10.9022 15.0944 10.9875 10.0594C11.0727 5.10963 15.0836 1.01354 20.0333 0.842647C25.0683 0.671725 29.3353 4.34176 29.8471 9.29103C30.4446 14.2408 27.0312 18.7635 22.0814 19.6171C22.2523 19.7023 22.4227 19.788 22.5937 19.788H28.9088C29.6767 19.788 30.4451 20.0441 30.9569 20.6416C31.5543 20.0441 32.3222 19.788 33.0901 19.788H39.4052C39.5762 19.788 39.7466 19.7028 39.9175 19.6171C35.0529 18.8492 31.6395 14.4112 32.0661 9.54712C32.4927 4.59733 36.5893 0.842518 41.4534 0.842518C46.4032 0.842518 50.4992 4.59733 50.9258 9.54712C51.3524 14.4117 47.9389 18.8491 43.0744 19.6171C43.2454 19.7023 43.4158 19.788 43.5867 19.788H49.9019C51.6938 19.788 53.0592 21.2386 53.0592 23.031C58.009 23.5433 61.6784 27.8956 61.4224 32.9305C61.1662 37.8803 56.9849 41.806 51.9499 41.806C47.0001 41.806 42.8188 37.8803 42.5626 32.9305C42.3065 27.8955 45.976 23.5432 50.9258 23.031C50.9258 22.3483 50.4993 21.9218 49.9018 21.9218H43.5866C42.8187 21.9218 42.0504 21.5804 41.4534 21.0682C40.9411 21.5804 40.1732 21.9218 39.4054 21.9218H33.0902C32.4927 21.9218 32.0662 22.3483 32.0662 23.031C36.8449 23.5433 40.5146 27.6394 40.4294 32.5035C40.4294 37.2823 36.6746 41.379 31.8953 41.8055C31.4687 43.0856 30.2738 43.9387 28.9083 43.9387H21.5692C20.8865 43.9387 20.46 44.451 20.46 45.048C25.495 45.6454 29.1646 49.9977 28.9084 54.9474C28.567 59.9824 24.4709 63.9081 19.4359 63.9081C14.4009 63.9081 10.3048 59.9824 9.96344 54.9474C9.70731 49.9976 13.3768 45.6454 18.4118 45.048C18.4118 44.4505 17.9853 43.9387 17.3026 43.9387H9.96347C8.42721 43.9387 7.14756 42.8295 6.89135 41.2932C2.53905 39.7569 -0.106482 35.3194 0.661388 30.7962C1.42928 26.273 5.35496 22.9448 9.96334 22.9448C14.8279 22.8596 18.8388 26.5292 19.3506 31.308L19.3507 31.309ZM25.4097 15.7773C24.8974 14.4971 23.8734 13.4731 22.5938 12.8757C21.3136 13.6436 19.6921 13.6436 18.3267 12.8757C17.0465 13.4732 16.1077 14.4971 15.5959 15.7773C20.5457 20.2148 25.4097 15.7773 25.4097 15.7773ZM20.4599 11.425C21.6548 11.425 22.5931 10.4862 22.5931 9.29178C22.5931 8.09683 21.6543 7.15855 20.4599 7.15855C19.3506 7.15855 18.4118 8.09737 18.4118 9.29178C18.4118 10.4867 19.3507 11.425 20.4599 11.425ZM20.4599 2.97663C14.8274 2.97663 11.3288 9.12089 14.1447 13.9854C14.7422 12.8761 15.681 11.9373 16.8755 11.3398C16.4489 10.6571 16.278 9.97446 16.278 9.29178C16.278 6.98752 18.1556 5.10999 20.4598 5.10999C22.764 5.10999 24.7269 6.98765 24.7269 9.29178C24.6417 9.97448 24.4707 10.6571 24.1294 11.3398C25.2386 11.9373 26.1774 12.8761 26.8601 13.9854C29.676 9.12076 26.0922 2.97663 20.4598 2.97663H20.4599ZM56.8992 37.88C56.3869 36.5146 55.3629 35.4905 54.0833 34.9783C52.8031 35.7462 51.1817 35.7462 49.9015 34.9783C48.6213 35.4906 47.5972 36.5146 47.0856 37.88C52.0354 42.2323 56.8993 37.88 56.8993 37.88H56.8992ZM51.9494 33.4425C53.1444 33.4425 54.0826 32.5037 54.0826 31.3092C54.0826 30.2 53.1438 29.2612 51.9494 29.2612C50.8402 29.2612 49.9014 30.2 49.9014 31.3092C49.9014 32.5042 50.8402 33.4425 51.9494 33.4425ZM44.6103 32.4184C44.6103 33.6986 44.9516 34.9788 45.6343 36.0881C46.317 34.9788 47.1706 34.04 48.3651 33.3573C47.9385 32.7599 47.7676 32.0772 47.7676 31.3093C47.7676 29.005 49.6452 27.1275 51.9494 27.1275C54.3388 27.1275 56.2165 29.0052 56.2165 31.3093C56.2165 32.0772 55.9603 32.7598 55.619 33.3573C56.7282 34.04 57.667 34.9788 58.3497 36.0881C59.886 33.3573 59.6299 30.0291 57.5818 27.6397C55.619 25.3354 52.3759 24.3967 49.4747 25.5064C46.5731 26.5305 44.6101 29.2613 44.6101 32.4191L44.6103 32.4184ZM41.453 11.4256C42.6479 11.4256 43.5862 10.4868 43.5862 9.29235C43.5862 8.09739 42.6474 7.15912 41.453 7.15912C40.3437 7.15912 39.4049 8.09794 39.4049 9.29235C39.4049 10.4873 40.3438 11.4256 41.453 11.4256ZM39.4049 12.8761C38.1248 13.4736 37.1007 14.4976 36.589 15.7778C39.4049 18.3381 43.5869 18.3381 46.4028 15.7778C45.8905 14.4976 44.8665 13.4735 43.5869 12.8761C42.2215 13.644 40.6852 13.644 39.4051 12.8761H39.4049ZM41.453 2.97668C35.8205 2.97668 32.3219 9.12094 35.1378 13.9854C35.7353 12.8762 36.6741 11.9374 37.8686 11.3399C37.442 10.6572 37.2711 9.97452 37.2711 9.29183C37.2711 6.98758 39.1487 5.11004 41.4529 5.11004C43.8423 5.11004 45.72 6.98771 45.72 9.29183C45.72 9.97453 45.4638 10.6572 45.1225 11.3399C46.2318 11.9374 47.1705 12.8761 47.8532 13.9854C50.6691 9.12081 47.1705 2.97668 41.4529 2.97668H41.453ZM30.9561 24.9944C25.3236 24.9944 21.825 31.1387 24.6409 36.0883C25.2384 34.9791 26.1772 34.0403 27.3716 33.3576C26.9451 32.7601 26.7741 32.0774 26.7741 31.3096C26.7741 29.0053 28.6518 27.1278 30.9559 27.1278C33.3454 27.1278 35.223 29.0054 35.223 31.3096C35.1378 32.0775 34.9669 32.7601 34.6256 33.3576C35.7348 34.0403 36.6736 34.979 37.3563 36.0883C40.1722 31.1385 36.6736 24.9944 30.9559 24.9944H30.9561ZM30.9561 39.7581C32.8337 39.7581 34.5405 39.0754 35.9058 37.8804C35.3936 36.515 34.3696 35.491 33.0899 34.9788C31.8098 35.7467 30.1883 35.7467 28.8228 34.9788C27.6279 35.4911 26.6039 36.515 26.0921 37.8804C27.4575 39.0754 29.1642 39.7581 30.9567 39.7581H30.9561ZM30.9561 33.4429C32.151 33.4429 33.0893 32.5041 33.0893 31.3097C33.0893 30.2004 32.1505 29.2616 30.9561 29.2616C29.8468 29.2616 28.908 30.2005 28.908 31.3097C28.908 32.5046 29.8468 33.4429 30.9561 33.4429ZM24.2996 59.8983C23.8731 58.6181 22.8491 57.5088 21.5689 56.9966C20.2887 57.7645 18.582 57.7645 17.3018 56.9966C16.0216 57.5089 14.9975 58.6181 14.5711 59.8983C17.3018 62.3729 21.5689 62.3729 24.2996 59.8983ZM19.435 55.4608C20.63 55.4608 21.5683 54.5219 21.5683 53.4127C21.5683 52.2178 20.6294 51.2795 19.435 51.2795C18.2401 51.2795 17.3018 52.2183 17.3018 53.4127C17.3018 54.522 18.2406 55.4608 19.435 55.4608ZM12.0959 54.4367C12.0959 55.7169 12.4373 56.9971 13.0347 58.1064C13.7174 56.9971 14.6562 56.0583 15.7655 55.4608C15.4241 54.7781 15.2532 54.0955 15.2532 53.4128C15.2532 51.1085 17.1308 49.1457 19.435 49.1457C21.7392 49.1457 23.6168 51.1085 23.6168 53.4128C23.6168 54.0955 23.4458 54.7781 23.1045 55.4608C24.2137 56.0583 25.1525 56.9971 25.75 58.1064C27.3715 55.4608 27.0302 52.0474 25.0673 49.7432C23.1045 47.3537 19.8615 46.5001 16.8745 47.5242C13.9729 48.5483 12.0958 51.3647 12.0958 54.4369L12.0959 54.4367ZM17.3018 41.8064C18.1554 41.8064 18.8381 42.1478 19.435 42.66C20.0325 42.1478 20.7152 41.8064 21.5683 41.8064H28.9074C29.0783 41.8064 29.2487 41.8064 29.4196 41.7212C25.2379 40.9533 22.0805 37.6251 21.5682 33.4432H19.3493C18.837 38.222 14.8261 41.8064 9.96202 41.8064L17.3018 41.8064ZM9.9627 33.4432C11.1577 33.4432 12.0959 32.5044 12.0959 31.31C12.0959 30.2007 11.1571 29.262 9.9627 29.262C8.85345 29.262 7.91466 30.2008 7.91466 31.31C7.91466 32.5049 8.85347 33.4432 9.9627 33.4432ZM11.9255 34.9795C10.6454 35.7474 9.19483 35.7474 7.82947 34.9795C6.5493 35.4918 5.61053 36.5157 5.09874 37.8811C7.82947 40.3557 12.0966 40.3557 14.9125 37.8811C14.5711 37.0275 12.7793 34.9795 11.9255 34.9795ZM3.64755 36.0887C4.24503 34.9795 5.18381 34.0407 6.29308 33.358C5.95174 32.7605 5.78081 32.0778 5.78081 31.31C5.78081 29.0057 7.65847 27.1282 9.96259 27.1282C12.2669 27.1282 14.1444 29.0058 14.1444 31.31C14.1444 32.0779 13.9735 32.7605 13.6321 33.358C14.7414 34.0407 15.6801 34.9795 16.3628 36.0887C18.1548 32.9314 17.4721 29.0057 14.7414 26.7015C12.0107 24.4825 7.99977 24.4825 5.26892 26.7015C2.5382 29.0057 1.85552 32.9314 3.64747 36.0887H3.64755Z" fill="#C89354"/>
</g>
<defs>
<clipPath id="clip0_13_68">
<rect width="62" height="64" fill="white"/>
</clipPath>
</defs>
</svg>
