<svg width="21" height="20" viewBox="0 0 21 20" fill="none" xmlns="http://www.w3.org/2000/svg">
<path d="M10.5001 18.6044C7.45774 18.6044 5.8447 19.3835 5.07104 19.9554C6.22756 19.75 8.37305 19.4298 10.5001 19.4298C12.618 19.4298 14.7544 19.7473 15.9143 19.9527C15.13 19.3809 13.5106 18.6044 10.5001 18.6044Z" fill="#913636"/>
<path d="M10.5 9.79852C12.0854 9.79852 13.3749 8.37902 13.3749 6.634C13.3749 4.88899 12.0853 3.46948 10.5 3.46948C8.91472 3.46948 7.62512 4.88899 7.62512 6.634C7.62512 8.37902 8.91472 9.79852 10.5 9.79852Z" fill="#913636"/>
<path d="M10.5 18C11.7107 16.6397 17.5 9.96091 17.5 6.65017C17.5 2.98323 14.3599 0 10.5 0C6.64005 0 3.5 2.98313 3.5 6.65017C3.5 9.96071 9.28906 16.6393 10.5 18ZM10.5 2.90945C12.6713 2.90945 14.4376 4.58753 14.4376 6.65027C14.4376 8.71301 12.6713 10.3911 10.5 10.3911C8.32875 10.3911 6.5624 8.71301 6.5624 6.65027C6.5624 4.58753 8.32875 2.90945 10.5 2.90945Z" fill="#913636"/>
</svg>
