<svg width="14" height="22" viewBox="0 0 14 22" fill="none" xmlns="http://www.w3.org/2000/svg">
<path d="M7.00001 3.32753C8.29651 3.32753 9.35089 4.38191 9.35089 5.67841C9.35089 6.97366 8.29651 8.02828 7.00001 8.02828C5.70476 8.02828 4.64914 6.97366 4.64914 5.67841C4.64914 4.38191 5.70476 3.32753 7.00001 3.32753ZM7.00001 11.3545C10.1319 11.3545 12.6778 8.80866 12.6778 5.67841C12.6778 2.54691 10.1319 3.24249e-05 7.00001 3.24249e-05C3.86889 3.24249e-05 1.32226 2.54691 1.32226 5.67841C1.32226 8.80853 3.86889 11.3545 7.00001 11.3545ZM9.29714 15.9864C10.453 15.723 11.5678 15.2658 12.5943 14.6208C13.3711 14.1312 13.6054 13.104 13.1158 12.327C12.6268 11.5483 11.6003 11.3142 10.822 11.8038C8.49639 13.2667 5.50189 13.266 3.17751 11.8038C2.39914 11.3142 1.37276 11.5484 0.884261 12.327C0.394636 13.1047 0.628136 14.1312 1.40526 14.6208C2.43164 15.265 3.54639 15.723 4.70226 15.9864L1.52789 19.1607C0.878886 19.8103 0.878886 20.8633 1.52851 21.5128C1.85364 21.8373 2.27901 21.9999 2.70426 21.9999C3.13026 21.9999 3.55626 21.8374 3.88139 21.5128L6.99926 18.3935L10.1199 21.5128C10.7689 22.1624 11.8219 22.1624 12.4714 21.5128C13.1216 20.8633 13.1216 19.8095 12.4714 19.1607C12.4715 19.1607 9.29714 15.9864 9.29714 15.9864Z" fill="#A99077"/>
</svg>
