<svg width="24" height="14" viewBox="0 0 24 14" fill="none" xmlns="http://www.w3.org/2000/svg">
<path d="M1.50006 0.212402C2.28756 0.212402 3.48756 0.212402 4.16256 0.212402C4.50006 0.212402 4.76256 0.437403 4.87506 0.737403C5.21256 1.7124 5.96256 3.8499 6.82506 5.3124C7.98756 7.2249 8.73756 7.9374 9.22506 7.8624C9.71256 7.7499 9.56256 6.4749 9.56256 5.4624C9.56256 4.4499 9.67506 2.7249 9.18756 1.9374L8.43756 0.849903C8.25006 0.587403 8.43756 0.249902 8.73756 0.249902H13.0126C13.4251 0.249902 13.7626 0.587402 13.7626 0.999902V6.4374C13.7626 6.4374 13.9501 7.4124 15.0001 6.3999C16.0501 5.3874 17.1751 3.5124 18.1126 1.5999L18.4876 0.699902C18.6001 0.437402 18.8626 0.249902 19.1626 0.249902H21.9376C22.4626 0.249902 22.8376 0.774903 22.6501 1.2624L22.3501 2.0499C22.3501 2.0499 21.3376 4.0749 20.2876 5.4999C19.2376 6.9624 19.0126 7.2999 19.1626 7.6749C19.3126 8.0499 22.0126 10.5624 22.6876 11.7624C22.8751 12.0999 23.0251 12.3999 23.1751 12.6624C23.4376 13.1499 23.0626 13.7874 22.5001 13.7874H19.3501C19.0876 13.7874 18.8251 13.6374 18.7126 13.4124L18.4126 12.9249C18.4126 12.9249 16.5001 10.6749 15.3376 9.9624C14.1376 9.2874 14.1751 10.2624 14.1751 10.2624V12.2499C14.1751 13.0749 13.5001 13.7499 12.6751 13.7499H11.9251C11.9251 13.7499 7.80006 13.7499 4.50006 8.8374C1.91256 5.0124 1.05006 2.5374 0.750058 1.1124C0.675058 0.662402 1.01256 0.212402 1.50006 0.212402Z" fill="#A99077"/>
</svg>
