<svg width="64" height="64" viewBox="0 0 64 64" fill="none" xmlns="http://www.w3.org/2000/svg">
<g clip-path="url(#clip0_13_75)">
<path fill-rule="evenodd" clip-rule="evenodd" d="M49.0195 63.8198C49.3607 63.8198 49.6167 63.7348 49.8728 63.6493C50.7261 63.8198 52.6026 64.1603 53.285 63.3937C65.3138 58.6262 66.6786 48.2385 59.9392 37.8517C59.598 37.3406 58.9155 37.2556 58.4035 37.5961C56.5265 39.0433 54.8203 40.661 53.1994 42.4493C52.6873 41.4277 51.9196 40.5761 51.152 39.81V2.17876C51.152 0.986611 50.2135 0.0505371 49.0195 0.0505371H7.47369C3.37898 0.0505371 0.0517578 3.37094 0.0517578 7.45754V56.4117C0.0517578 60.4982 3.37885 63.8187 7.47369 63.8187H49.0195L49.0195 63.8198ZM55.2473 60.0738C56.6122 56.7534 57.5508 53.1774 57.9771 49.5165C58.148 48.1543 56.1001 47.8137 55.8446 49.1759C54.8209 56.4978 53.0297 59.9889 52.1762 61.351C46.2045 53.348 52.4323 45.3446 58.7453 40.0662C63.0109 47.8992 64.0346 55.0502 55.2473 60.0736V60.0738ZM41.086 41.0026C39.8063 40.2365 38.6974 42.1092 39.9772 42.7903C40.0623 42.8753 45.6929 46.2812 47.8259 52.0704C47.2287 55.3908 47.9968 58.6262 49.703 61.5207C36.2243 59.4774 33.7494 45.2593 34.1765 33.765C46.4613 37.0854 53.4565 41.172 48.7649 49.0053C46.6324 45.4292 44.4992 43.216 41.087 41.0023L41.086 41.0026ZM2.18411 7.45728C2.18411 4.56247 4.57275 2.17863 7.4734 2.17863H49.0192V37.8512C42.621 32.8281 33.7482 31.4659 33.3224 31.3809C32.7251 31.2959 32.1279 31.8065 32.1279 32.4026C31.7015 37.9368 32.2131 43.5559 33.6636 48.9202H7.47265C5.42529 48.9202 3.63342 49.7718 2.18336 51.2191L2.18411 7.45728ZM34.3467 51.0481C34.6027 51.8142 34.944 52.4953 35.2852 53.1763H20.271C19.6737 53.1763 19.1621 53.6874 19.1621 54.283C19.1621 54.8791 19.6742 55.3046 20.271 55.3046H36.3949C36.907 56.0707 37.3334 56.7518 37.9306 57.4328H20.2713C19.674 57.4328 19.1624 57.9439 19.1624 58.5395C19.1624 59.1356 19.6745 59.5611 20.2713 59.5611H40.1487C41.1724 60.4127 42.2812 61.0938 43.4758 61.6893H7.47448C0.478997 61.6893 0.478997 51.0469 7.47448 51.0469H34.348L34.3467 51.0481Z" fill="#C89354"/>
<path fill-rule="evenodd" clip-rule="evenodd" d="M12.7625 55.3066H16.0044C16.6017 55.3066 17.0281 54.8811 17.0281 54.285C17.0281 53.6889 16.6017 53.1783 16.0044 53.1783H12.7625C12.2504 53.1783 11.7388 53.6894 11.7388 54.285C11.7388 54.8811 12.2509 55.3066 12.7625 55.3066Z" fill="#C89354"/>
<path fill-rule="evenodd" clip-rule="evenodd" d="M12.7625 59.5638H16.0044C16.6017 59.5638 17.0281 59.1383 17.0281 58.5422C17.0281 57.9461 16.6017 57.4355 16.0044 57.4355H12.7625C12.2504 57.4355 11.7388 57.9466 11.7388 58.5422C11.7388 59.1383 12.2509 59.5638 12.7625 59.5638Z" fill="#C89354"/>
<path fill-rule="evenodd" clip-rule="evenodd" d="M27.6917 25.5073C26.924 25.5073 26.1559 25.8479 25.5591 26.3589C25.047 25.8479 24.2794 25.5073 23.4266 25.5073H20.2704C19.6731 25.5073 19.1615 25.0818 19.1615 24.4857V23.379H20.2704C21.4649 23.379 22.4029 22.4424 22.4029 21.2508V19.1226C22.4029 18.186 21.9765 17.3348 21.2083 16.7387C21.8056 14.4399 20.7819 11.7156 18.1372 11.7156C15.4926 11.7156 14.4688 14.4399 15.0661 16.7387C14.2985 17.3348 13.8716 18.1859 13.8716 19.1226V21.2508C13.8716 22.443 14.8101 23.379 16.0041 23.379H17.0278V24.4857C17.0278 26.2734 18.4779 27.6356 20.2697 27.6356H23.426C24.1936 27.6356 24.5349 28.2317 24.5349 28.9128C22.5727 29.5939 22.0611 31.8927 22.4875 33.766C21.7199 34.362 21.2929 35.2131 21.2929 36.1498V38.278C21.2929 39.4702 22.3166 40.4062 23.4255 40.4062H27.6911C28.8857 40.4062 29.8237 39.4696 29.8237 38.278V36.1498C29.8237 35.2132 29.3973 34.362 28.7148 33.766C29.1412 31.8927 28.5439 29.594 26.6674 28.9128C26.6674 28.2317 26.9235 27.6356 27.6911 27.6356H30.9331C32.7244 27.6356 34.0893 26.2734 34.0893 24.4857V23.379H35.1982C36.3927 23.379 37.3307 22.4424 37.3307 21.2508V19.1226C37.3307 18.186 36.9043 17.3348 36.1362 16.7387C36.7334 14.525 35.7097 11.7156 33.0651 11.7156C30.4204 11.7156 29.3967 14.5249 29.9088 16.7387C29.2263 17.3348 28.7999 18.1859 28.7999 19.1226V21.2508C28.7999 22.443 29.7384 23.379 30.9324 23.379H31.9561V24.4857C31.9561 25.0818 31.5297 25.5073 30.9324 25.5073H27.6905H27.6917ZM18.1367 13.8433C19.5868 13.8433 19.6724 16.9932 18.1367 16.9932C16.601 16.9932 16.6866 13.8433 18.1367 13.8433ZM16.0042 19.122C16.0042 18.9515 16.0894 18.6964 16.2602 18.5259C17.3691 19.3775 18.9049 19.3775 20.0138 18.5259C20.1846 18.6964 20.2698 18.9515 20.2698 19.122V21.2502H16.0042L16.0042 19.122ZM25.5591 30.871C27.0949 30.871 27.0949 34.0209 25.5591 34.0209C24.1091 34.0209 24.1091 30.871 25.5591 30.871ZM27.6917 38.278H23.426V36.1497C23.426 35.9792 23.5112 35.7242 23.682 35.5537C24.7909 36.4053 26.4118 36.4053 27.5213 35.5537C27.6064 35.7242 27.6921 35.9792 27.6921 36.1497V38.278H27.6917ZM33.0661 13.8433C34.5162 13.8433 34.5162 16.9932 33.0661 16.9932C31.5304 16.9932 31.5304 13.8433 33.0661 13.8433ZM30.9336 19.122C30.9336 18.9515 31.0188 18.6964 31.1896 18.5259C32.2985 19.3775 33.8343 19.3775 34.9432 18.5259C35.1141 18.6964 35.1992 18.9515 35.1992 19.122V21.2502H30.9336L30.9336 19.122Z" fill="#C89354"/>
<path fill-rule="evenodd" clip-rule="evenodd" d="M19.9292 46.5372H8.24169C7.64441 46.5372 7.13281 46.1117 7.13281 45.5156C7.13281 44.9195 7.64492 44.4089 8.24169 44.4089H19.9292C20.5265 44.4089 21.0381 44.92 21.0381 45.5156C21.0381 46.1117 20.5259 46.5372 19.9292 46.5372Z" fill="#C89354"/>
</g>
<defs>
<clipPath id="clip0_13_75">
<rect width="64" height="64" fill="white"/>
</clipPath>
</defs>
</svg>
