<svg width="20" height="20" viewBox="0 0 20 20" fill="none" xmlns="http://www.w3.org/2000/svg">
<path d="M6.34108e-09 6.77L9.68546 11.3875C9.78261 11.4338 9.8905 11.458 10 11.458C10.1095 11.458 10.2174 11.4338 10.3145 11.3875L20 6.77083V14.7917C20 15.4834 19.7113 16.149 19.193 16.6519C18.6747 17.1547 17.9662 17.4567 17.2127 17.4958L17.0455 17.5H2.95455C2.19987 17.5 1.47379 17.2354 0.925245 16.7603C0.376697 16.2852 0.0472715 15.6357 0.00454556 14.945L6.34108e-09 14.7917V6.77ZM2.95455 2.5H17.0455C17.8001 2.49995 18.5262 2.76463 19.0748 3.23973C19.6233 3.71482 19.9527 4.36433 19.9955 5.055L20 5.20833V5.36167L10 10.1283L6.34108e-09 5.36167V5.20833C-4.94061e-05 4.51655 0.288686 3.85098 0.806974 3.34814C1.32526 2.84531 2.03381 2.54333 2.78727 2.50417L2.95455 2.5Z" fill="#913636"/>
</svg>
