<svg width="33" height="32" viewBox="0 0 33 32" fill="none" xmlns="http://www.w3.org/2000/svg">
<path d="M17.8842 25.9567H15.2777C15.0723 25.9567 14.9053 25.7798 14.9053 25.5616V7.39504C14.9053 7.17714 15.072 7 15.2777 7H17.8842C18.0897 7 18.2567 7.17686 18.2567 7.39504V25.5616C18.2564 25.7795 18.0897 25.9564 17.8842 25.9564V25.9567Z" fill="white"/>
<path d="M14.1605 23.8762V25.0611C14.1605 25.1702 14.0771 25.2586 13.9743 25.2586H1.87247C1.66702 25.2586 1.5 25.0817 1.5 24.8635V9.76467C1.5 9.54677 1.66675 9.36963 1.87247 9.36963H13.9743C14.0771 9.36963 14.1605 9.45806 14.1605 9.56715V10.752C14.1605 10.8611 14.0771 10.9495 13.9743 10.9495L4.47902 10.9492C4.47902 11.8217 3.81202 12.5288 2.98969 12.5288V22.007C3.81122 22.007 4.52343 22.725 4.4705 23.6786L13.9744 23.6792C14.077 23.6792 14.1607 23.7676 14.1607 23.8764L14.1605 23.8762Z" fill="white"/>
<path d="M31.6615 9.76473V24.8643C31.6615 25.0822 31.4947 25.2593 31.289 25.2593L19.1872 25.2591C19.0844 25.2591 19.001 25.1706 19.001 25.0615V23.8767C19.001 23.7676 19.0844 23.6792 19.1872 23.6792H28.6911C28.6381 22.7241 29.3522 22.0076 30.1719 22.0076V12.5294C29.3493 12.5294 28.6826 11.8219 28.6826 10.9498L19.1873 10.9495C19.0845 10.9495 19.0011 10.8611 19.0011 10.752V9.56715C19.0011 9.45806 19.0845 9.36963 19.1873 9.36963H31.2892C31.4949 9.3699 31.6616 9.54676 31.6616 9.76494L31.6615 9.76473Z" fill="white"/>
<path d="M13.9742 8.57987H1.68623C1.58338 8.57987 1.5 8.49144 1.5 8.38235V7.98731C1.5 7.87822 1.58338 7.78979 1.68623 7.78979H13.9742C14.0771 7.78979 14.1605 7.87822 14.1605 7.98731V8.38235C14.1605 8.49144 14.0768 8.57987 13.9742 8.57987Z" fill="white"/>
<path d="M31.6614 7.98756V8.3826C31.6614 8.49169 31.5781 8.58012 31.4752 8.58012H19.1872C19.0844 8.58012 19.001 8.49169 19.001 8.3826V7.98756C19.001 7.87847 19.0844 7.79004 19.1872 7.79004H31.4752C31.5781 7.79031 31.6614 7.87874 31.6614 7.98756Z" fill="white"/>
<path d="M19.1316 13.86C19.8812 14.7178 20.3519 15.9473 20.3519 17.3145C20.3519 18.6817 19.8812 19.9112 19.1316 20.769C19.0859 20.8216 19.0017 20.7839 19.0017 20.7125L19.0015 13.9161C19.0015 13.8445 19.0856 13.8073 19.1316 13.86V13.86Z" fill="white"/>
<path d="M14.1607 20.7126C14.1607 20.7839 14.0766 20.8211 14.0308 20.7691C13.2813 19.9112 12.8105 18.6817 12.8105 17.3146C12.8105 15.9473 13.2812 14.7179 14.0308 13.8601C14.0766 13.8075 14.1607 13.8452 14.1607 13.9165V20.7126Z" fill="white"/>
<path d="M9.31997 17.2683C9.31997 18.1407 8.65297 18.8479 7.83064 18.8479C7.00804 18.8479 6.34131 18.1404 6.34131 17.2683C6.34131 16.3959 7.00831 15.6887 7.83064 15.6887C8.65297 15.6887 9.31997 16.3959 9.31997 17.2683Z" fill="white"/>
<path d="M25.3316 15.6887C26.1542 15.6887 26.821 16.3961 26.821 17.2683C26.821 18.1407 26.154 18.8478 25.3316 18.8478C24.509 18.8478 23.8423 18.1404 23.8423 17.2683C23.842 16.3958 24.509 15.6887 25.3316 15.6887Z" fill="white"/>
</svg>
