<svg width="20" height="21" viewBox="0 0 20 21" fill="none" xmlns="http://www.w3.org/2000/svg">
<g clip-path="url(#clip0_13_6)">
<path d="M17.8946 9.97253H19.9998C19.9998 4.57259 15.9231 0.5 10.5159 0.5V2.60524C14.7916 2.60524 17.8946 5.7031 17.8946 9.97253Z" fill="#913636"/>
<path d="M10.5264 6.81573C12.74 6.81573 13.6842 7.75993 13.6842 9.97359H15.7894C15.7894 6.57889 13.921 4.71048 10.5264 4.71048V6.81573ZM14.1284 12.5451C13.9261 12.3613 13.6603 12.2633 13.3871 12.2717C13.1139 12.2801 12.8547 12.3944 12.6642 12.5904L10.1453 15.1809C9.53901 15.0651 8.32009 14.6851 7.06538 13.4336C5.81068 12.1778 5.43069 10.9557 5.31806 10.3536L7.90641 7.83361C8.10263 7.64322 8.21708 7.38395 8.22552 7.11068C8.23397 6.8374 8.13576 6.57156 7.95168 6.36941L4.0623 2.09262C3.87814 1.88984 3.62218 1.76683 3.3488 1.74974C3.07541 1.73264 2.80612 1.82279 2.59813 2.00104L0.313973 3.95997C0.13199 4.14261 0.0233694 4.3857 0.00871764 4.64312C-0.00707144 4.90627 -0.308116 11.1399 4.52545 15.9756C8.74218 20.1914 14.0242 20.4998 15.4789 20.4998C15.6915 20.4998 15.822 20.4935 15.8567 20.4914C16.1141 20.477 16.3571 20.3679 16.5388 20.1851L18.4967 17.8998C18.6751 17.692 18.7654 17.4227 18.7485 17.1494C18.7316 16.876 18.6088 16.6199 18.4062 16.4356L14.1284 12.5451Z" fill="#913636"/>
</g>
<defs>
<clipPath id="clip0_13_6">
<rect width="20" height="19.9998" fill="white" transform="translate(0 0.5)"/>
</clipPath>
</defs>
</svg>
