<svg width="32" height="32" viewBox="0 0 32 32" fill="none" xmlns="http://www.w3.org/2000/svg">
<g clip-path="url(#clip0_13_91)">
<path d="M15.9998 18.7611C19.4572 18.7611 22.4535 15.7187 23.4181 14.635C22.4535 13.5512 19.4487 10.5088 15.9998 10.5088C12.5425 10.5088 9.54615 13.5512 8.58154 14.635C9.54615 15.7187 12.551 18.7611 15.9998 18.7611ZM15.9998 10.8543C18.2194 10.8543 20.0206 12.5481 20.0206 14.6353C20.0206 16.7225 18.2194 18.4083 15.9998 18.4083C13.7803 18.4083 11.9791 16.7145 11.9791 14.6273C11.9791 12.5401 13.7803 10.8543 15.9998 10.8543Z" fill="white"/>
<path d="M2.08545 21.1214C2.08545 22.0285 2.89645 22.743 3.86106 22.743H28.0968C29.0614 22.743 29.8297 22.0286 29.8297 21.1214V6.36694H2.08568L2.08545 21.1214ZM7.1562 14.2579C7.31839 14.0492 11.1257 9.22463 15.9999 9.22463C20.8741 9.22463 24.6813 14.0491 24.8436 14.2579C25.0229 14.4827 25.0229 14.7877 24.8436 15.0124C24.6814 15.2212 20.8741 20.0457 15.9999 20.0457C11.1257 20.0457 7.31854 15.2212 7.1562 15.0124C6.98547 14.7877 6.98547 14.4826 7.1562 14.2579Z" fill="white"/>
<path d="M18.655 14.6355C18.655 16.0142 17.4663 17.1321 16.0001 17.1321C14.5339 17.1321 13.3452 16.0143 13.3452 14.6355C13.3452 13.2567 14.5339 12.1389 16.0001 12.1389C17.4663 12.1389 18.655 13.2567 18.655 14.6355Z" fill="white"/>
<path d="M30.6147 0.0251465H1.38538C0.642702 0.0251465 0.0366211 0.595099 0.0366211 1.29348V3.81414C0.0366211 4.51253 0.642717 5.08247 1.38538 5.08247H30.6147C31.3573 5.08247 31.9634 4.51252 31.9634 3.81414V1.29348C31.9634 0.595084 31.3573 0.0251465 30.6147 0.0251465Z" fill="white"/>
<path d="M21.728 30.8271L16.6829 27.1986V23.4658H15.317V27.1424L10.2292 30.8271C9.93038 31.0438 9.87062 31.4452 10.1011 31.7262C10.2377 31.8867 10.434 31.975 10.6389 31.975C10.784 31.975 10.9292 31.9349 11.0572 31.8385L15.9572 28.2904L20.8999 31.8385C21.0194 31.9268 21.173 31.967 21.3182 31.967C21.523 31.967 21.7279 31.8787 21.8645 31.7181C22.0865 31.4452 22.0267 31.0358 21.7279 30.827L21.728 30.8271Z" fill="white"/>
</g>
<defs>
<clipPath id="clip0_13_91">
<rect width="32" height="32" fill="white"/>
</clipPath>
</defs>
</svg>
